<?xml version="1.0" encoding="UTF-8"?>
<svg id="Calque_1" data-name="Calque 1" xmlns="http://www.w3.org/2000/svg" xmlns:xlink="http://www.w3.org/1999/xlink" viewBox="0 0 1640.9 887.34">
  <defs>
    <style>
      .cls-1 {
        stroke: url(#Dégradé_sans_nom_495);
      }

      .cls-1, .cls-2, .cls-3, .cls-4 {
        fill: none;
        stroke-miterlimit: 10;
        stroke-width: 11px;
      }

      .cls-2 {
        stroke: url(#Dégradé_sans_nom_493);
      }

      .cls-3 {
        stroke: url(#Dégradé_sans_nom_493-2);
      }

      .cls-4 {
        stroke: url(#Dégradé_sans_nom_493-3);
      }

      .cls-5 {
        fill: #52539a;
      }

      .cls-5, .cls-6, .cls-7, .cls-8 {
        stroke-width: 0px;
      }

      .cls-6 {
        fill: #cd5c66;
      }

      .cls-7 {
        fill: #fff;
      }

      .cls-8 {
        fill: #010101;
      }
    </style>
    <linearGradient id="Dégradé_sans_nom_493" data-name="Dégradé sans nom 493" x1="216.04" y1="415.35" x2="282.43" y2="415.35" gradientUnits="userSpaceOnUse">
      <stop offset="0" stop-color="#42579f"/>
      <stop offset="1" stop-color="#ce5b66"/>
    </linearGradient>
    <linearGradient id="Dégradé_sans_nom_495" data-name="Dégradé sans nom 495" x1="335.98" y1="547.18" x2="1265.51" y2="547.18" gradientUnits="userSpaceOnUse">
      <stop offset="0" stop-color="#42579f"/>
      <stop offset="1" stop-color="#ce5b66"/>
    </linearGradient>
    <linearGradient id="Dégradé_sans_nom_493-2" data-name="Dégradé sans nom 493" x1="1312.48" y1="421.12" x2="1370.21" y2="421.12" xlink:href="#Dégradé_sans_nom_493"/>
    <linearGradient id="Dégradé_sans_nom_493-3" data-name="Dégradé sans nom 493" x1="451.15" y1="290.79" x2="1216.83" y2="290.79" xlink:href="#Dégradé_sans_nom_493"/>
  </defs>
  <polygon class="cls-6" points="302.71 210.1 259.39 205.48 231.03 238.55 222.03 195.93 181.82 179.17 219.57 157.44 223.08 114.02 255.42 143.22 297.8 133.13 280.02 172.9 302.71 210.1"/>
  <polygon class="cls-5" points="1297.39 568.8 1313.73 579.27 1331.61 571.74 1326.71 590.51 1339.39 605.19 1320.02 606.33 1309.98 622.92 1302.92 604.86 1284.03 600.44 1299.03 588.13 1297.39 568.8"/>
  <path class="cls-2" d="m280.08,482.6c-41.52-19.61-58.54-48.99-58.54-73.02,0-22.15,20.09-43.07,55.76-61.57"/>
  <path class="cls-1" d="m1262.87,508.05c-83.84,45.9-262.53,77.59-469.43,77.59-195.79,0-366.32-28.38-455.11-70.33"/>
  <path class="cls-3" d="m1326.21,362.2c24.4,15.82,38.5,36.91,38.5,55.02,0,21.11-16.98,44.75-49.58,62.6"/>
  <path class="cls-4" d="m452.33,293.57c90.48-19.98,207.25-32.01,334.73-32.01,177.3,0,333.89,23.28,427.82,58.82"/>
  <polygon class="cls-5" points="1323.94 618.51 1367.22 613.52 1387.64 575.03 1405.76 614.65 1448.67 622.18 1416.6 651.66 1422.69 694.8 1384.75 673.4 1345.61 692.53 1354.23 649.83 1323.94 618.51"/>
  <polygon class="cls-6" points="318.34 248.69 300.38 241.36 284.15 251.99 285.58 232.65 270.45 220.51 289.29 215.88 296.16 197.74 306.38 214.23 325.76 215.16 313.23 229.98 318.34 248.69"/>
  <g>
    <g>
      <path class="cls-8" d="m737.87,449.96c0,14.53-15.11,18.79-31.97,18.79h-9.98v14.04c0,11.24,4.17,15.69,6.29,16.37v1.06h-31.58v-1.06c2.13-.68,6.3-5.13,6.3-16.37v-32.93c0-11.24-4.17-15.69-6.3-16.37v-1.07h44.36c13.27,0,22.86,8.04,22.86,17.53Zm-32.84,14.53c8.23,0,12.79-6.2,12.79-13.85s-5.81-14.34-12.79-14.34h-4.75c-2.23,0-4.36.87-4.36,7.36v20.83h9.1Z"/>
      <path class="cls-8" d="m731.29,477.66c0-13.75,10.85-24.89,24.89-24.89s24.8,11.14,24.8,24.89-10.85,24.8-24.8,24.8-24.89-11.04-24.89-24.8Zm32.54-1.07c-1.84-13.27-5.81-20.44-10.56-19.76-4.84.68-6.69,8.72-4.94,21.89,1.94,13.27,5.91,20.34,10.75,19.57,4.65-.58,6.59-8.53,4.75-21.7Z"/>
      <path class="cls-8" d="m836.2,482.8c0,11.24,4.17,15.69,6.3,16.37v1.06h-24.02c-.78-1.55-1.26-1.65-3.97.1-2.03,1.26-4.65,2.13-7.85,2.13-14.92,0-21.79-13.08-21.79-27.8s11.33-21.89,20.63-21.89c5.62,0,9.98,2.33,13.08,5.91v-7.46c0-7.94-2.52-11.14-7.65-12.88v-1.26c8.04-1.45,17.24-11.72,21.79-11.72,3.68,0,3.49,3.97,3.49,6.88v50.56Zm-24.89,15.6c4.84,0,6.88-5.81,7.17-17.34l.1-8.33c-.49-12.11-3.88-14.53-7.27-14.53-5.04,0-7.17,5.81-7.17,20.15s2.13,20.05,7.17,20.05Z"/>
      <path class="cls-8" d="m886.67,489.29c-2.33,6.1-9.11,13.17-21.89,13.17-14.05,0-24.89-11.04-24.89-24.8s10.85-24.89,24.89-24.89c10.95,0,20.44,5.42,20.44,13.75,0,3.39-2.81,6.2-6.3,6.2s-6.2-2.81-5.91-6.2c0-9.49-3.1-9.88-6.59-9.88-5.13,0-8.52,7.65-8.52,21.02s5.62,19.95,11.53,19.95c2.71,0,6.97-2.71,7.94-8.33h9.3Z"/>
      <path class="cls-8" d="m939.47,496.07v.97c-1.26,2.71-4.07,5.52-8.23,5.52-5.04,0-8.62-2.33-10.66-4.84-1.16-1.26-2.13-1.36-3.49-.39-3.29,2.91-7.46,5.23-11.72,5.23-10.07,0-17.73-7.75-17.73-17.34,0-10.36,9.3-18.6,20.73-18.6,4.07,0,7.46.78,10.07,2.32-.58-7.65-2.81-12.3-8.72-12.3s-9.3,4.55-9.3,8.62l-2.23.87c-2.23-.87-3.39-2.13-3.39-4.65,0-5.13,7.56-8.72,15.79-8.72,17.43,0,25.67,9.39,25.67,22.57v12.98c0,4.65,1.94,6.1,3.2,7.75Zm-28.96.87c1.06,0,2.52-.78,3.97-2.13,3.78-3.97,4.07-8.33,4.07-15.21v-6c-1.55-1.16-3.58-1.94-5.52-1.94-4.94,0-7.65,3.49-7.65,12.21,0,7.75,2.23,13.08,5.13,13.08Z"/>
      <path class="cls-8" d="m948.28,482.21c3.49,0,7.46,1.84,7.46,5.04,0,3-2.91,4.45-2.91,6.3,0,2.42,3.2,5.04,9.78,5.04,5.42,0,8.43-1.74,8.43-5.33,0-9.3-28.87-10.46-28.87-26.83,0-7.65,11.43-13.56,22.96-13.56,10.85,0,18.5,4.17,18.5,8.33,0,2.13-2.03,4.94-4.55,5.42l-.97-.48c0-4.55-4.26-9.4-10.08-9.4-3.29,0-7.46,1.55-7.46,4.65,0,6.88,26.06,10.66,26.06,25.57,0,10.17-11.43,15.5-23.34,15.5-8.52,0-22.86-3.78-22.86-12.3,0-4.36,3.39-7.94,7.85-7.94Z"/>
      <path class="cls-8" d="m1019.19,454.71c.48,0,.48,3.87,0,3.87h-6.97c-1.94,0-2.61.49-2.81,1.36v28.38c0,4.75,1.84,6.01,3.2,7.75v.97c-1.26,2.71-4.07,5.52-8.23,5.52-8.33,0-12.69-5.04-12.69-12.88v-28.19c0-1.94,0-2.91-2.91-2.91h-3.49c-.48,0-.48-3.87,0-3.87h.1c10.66,0,16.56-12.3,22.09-22.28h1.94v22.28h9.78Z"/>
    </g>
    <g>
      <path class="cls-6" d="m331.15,409.34c7.26,0,12.59,3.71,11.46,10.49-.81,5.81-7.1,7.43-7.75,11.95-.97,5.97,11.14,12.43,27.12,12.43,13.08,0,23.41-8.07,24.86-16.79,4.68-29.23-60.38-24.38-54.09-63.94,2.91-18.57,23.09-31.64,45.37-31.64,28.58,0,48.28,11.95,46.34,24.22-.97,5.65-6.3,10.33-12.11,10.33s-9.69-4.68-8.23-10.33c2.74-11.14-1.94-16.14-16.47-16.14-8.72,0-17.28,5.17-18.57,12.59-3.39,22.28,56.83,24.86,51.18,60.55-3.87,24.7-31.48,39.23-60.38,39.23-18.24,0-47.14-11.46-44.24-29.71,1.13-7.27,8.07-13.24,15.5-13.24Z"/>
      <path class="cls-6" d="m498.58,430.33c-5.49,10.17-20.02,21.96-36.81,21.96-26.64,0-41.65-18.41-38.1-41.33,3.71-22.93,24.7-41.49,48.11-41.49s31.81,13.4,31.81,34.07c0,5.33-2.91,10.01-13.72,10.01-26.64.48-45.21,5.49-34.87,22.6,7.91,12.76,20.83,9.69,28.09-5.81h15.5Zm-44.88-19.38l-.16,1.29c17.76-7.75,22.28-3.07,24.54-17.12,2.1-14.21-1.61-19.21-8.56-19.21-7.75,0-12.27,12.76-15.82,35.04Z"/>
      <path class="cls-6" d="m553.48,403.04l10.01,21.15c7.75,15.66,14.53,21.47,15.5,22.6l-.32,1.78h-50.37l.32-1.78c4.36-1.13,8.07-6.94.32-22.6l-1.78-3.71-3.87,4.36c-13.08,15.34-10.82,20.83-6.3,21.96l-.32,1.78h-27.61l.32-1.78c2.26-1.13,13.24-6.62,26.32-21.96l8.72-10.01-8.4-17.76c-7.75-15.66-16.63-21.47-18.57-22.6l.32-1.78h53.44l-.32,1.78c-4.36,1.13-8.07,6.94-.32,22.6l.16.32.97-1.13c13.4-15.18,11.95-20.67,7.91-21.8l.32-1.78h30.68l-.32,1.78c-3.71,1.13-17.6,6.62-31,21.8l-5.81,6.78Z"/>
      <path class="cls-6" d="m677.16,405.95c-3.87,24.54-18.89,46.34-43.75,46.34-5.33,0-9.36-1.45-12.43-3.55-4.04-2.9-6.13-4.2-6.78-.16l-6.78,42.46h-40.04l.32-1.78c3.71-1.13,11.95-8.56,14.85-27.29l7.91-49.41c2.1-13.24-1.13-18.57-9.2-21.47l.32-2.1c13.72-2.42,31.81-19.54,39.39-19.54,5.49,0,5.01,5.17,4.2,9.85,6.13-5.97,14.05-9.85,23.41-9.85,15.5,0,32.45,11.95,28.58,36.49Zm-33.1,6.13c3.71-23.9,1.78-33.58-6.62-33.58-5.97,0-12.92,4.68-16.63,28.42l-.48,2.91c-3.71,23.73-2.42,35.68,6.46,35.68,8.4,0,13.56-9.69,17.28-33.42Z"/>
      <path class="cls-6" d="m725.43,335.23l-13.24,84.28c-3.07,18.73,2.74,26.16,6.13,27.29l-.32,1.78h-50.54l.32-1.78c3.71-1.13,11.79-8.56,14.85-27.29l8.39-52.63c2.1-13.24-1.29-18.57-9.36-21.48l.32-2.1c13.88-2.42,31.97-19.54,39.56-19.54,6.13,0,4.68,6.62,3.87,11.46Z"/>
      <path class="cls-6" d="m718.33,410.95c3.71-22.93,24.7-41.49,48.11-41.49s38.43,18.57,34.71,41.49c-3.55,22.93-24.7,41.33-47.95,41.33s-38.43-18.41-34.87-41.33Zm54.57-1.78c.32-22.12-4.36-34.07-12.43-32.94-8.23,1.13-13.4,14.53-14.05,36.49-.16,22.12,4.52,33.91,12.75,32.61,7.91-.97,13.24-14.21,13.72-36.17Z"/>
      <path class="cls-6" d="m891.58,384.47c-1.61,10.66-11.79,19.21-22.28,19.21-9.69,0-14.53-8.56-13.24-17.11.32-1.94.97-3.71,1.78-5.65,1.29-2.91,1.94-4.2-1.78-1.94-4.68,3.39-9.2,9.53-10.66,18.25l-3.39,22.28c-3.07,18.73,2.74,26.16,6.13,27.29l-.32,1.78h-50.37l.32-1.78c3.71-1.13,11.79-8.56,14.85-27.29l.97-6.78c2.1-13.24-1.13-18.57-9.36-21.47l.32-2.1c13.88-2.42,31.97-19.7,39.56-19.7,5.17,0,4.84,6.3,4.04,10.98,5.65-7.26,13.24-15.18,27.29-15.18,10.49,0,17.76,8.72,16.15,19.21Z"/>
      <path class="cls-6" d="m966.22,428.71c-1.29,7.75,1.61,10.17,3.23,12.92l-.32,1.62c-2.74,4.52-8.23,9.2-15.18,9.2-8.39,0-13.72-3.88-16.47-8.07-1.61-2.1-3.23-2.26-5.65-.65-6.3,4.84-13.88,8.72-20.99,8.72-16.79,0-27.45-12.92-24.86-28.9,2.74-17.28,20.34-31,39.39-31,6.78,0,12.27,1.29,16.15,3.88,1.13-12.76-1.45-20.51-11.3-20.51s-16.63,7.59-17.76,14.37l-3.87,1.45c-3.55-1.45-5.17-3.55-4.52-7.75,1.45-8.56,15.01-14.53,28.74-14.53,29.06,0,40.2,15.66,36.81,37.62l-3.39,21.63Zm-45.21,14.37c1.78,0,4.36-1.29,7.1-3.55,7.26-6.62,9.04-13.88,10.82-25.35l1.61-10.01c-2.26-1.94-5.49-3.23-8.72-3.23-8.23,0-13.72,5.81-15.98,20.34-2.1,12.92.32,21.8,5.17,21.8Z"/>
      <path class="cls-6" d="m1015.31,372.68h16.31c.81,0-.32,6.46-1.13,6.46h-11.62c-3.23,0-4.52.81-5,2.26l-7.43,47.31c-1.29,7.91,1.45,10.01,3.23,12.92l-.32,1.62c-2.74,4.52-8.23,9.2-15.18,9.2-13.88,0-19.7-8.4-17.76-21.48l7.43-46.98c.65-3.23.81-4.84-4.04-4.84h-5.81c-.81,0,.32-6.46,1.13-6.46h.16c17.76,0,30.84-20.5,42.62-37.13h3.23l-5.81,37.13Z"/>
      <path class="cls-6" d="m1093.13,430.33c-5.49,10.17-20.02,21.96-36.81,21.96-26.64,0-41.65-18.41-38.1-41.33,3.71-22.93,24.7-41.49,48.11-41.49s31.81,13.4,31.81,34.07c0,5.33-2.91,10.01-13.72,10.01-26.64.48-45.21,5.49-34.87,22.6,7.91,12.76,20.83,9.69,28.09-5.81h15.5Zm-44.88-19.38l-.16,1.29c17.76-7.75,22.28-3.07,24.54-17.12,2.1-14.21-1.61-19.21-8.56-19.21-7.75,0-12.27,12.76-15.82,35.04Z"/>
      <path class="cls-6" d="m1193.66,372.68l-.32,1.78c-2.26,1.13-7.75,8.56-10.65,27.29l-4.2,26.96c-1.29,7.91,1.45,10.01,3.23,12.92l-.32,1.62c-2.74,4.52-8.23,9.2-15.18,9.2-11.14,0-17.11-5.33-18.08-14.21-6.13,7.1-14.53,13.24-25.99,13.24-17.44,0-20.99-14.69-18.89-27.93l3.39-21.8c2.91-18.73-.65-26.16-3.07-27.29l.32-1.78h36.81l-8.23,51.34c-1.45,9.37.65,14.53,6.62,14.53,6.46,0,9.36-7.59,11.46-20.02l2.58-16.79c2.91-18.73-.65-26.16-2.91-27.29l.32-1.78h43.11Z"/>
      <path class="cls-6" d="m1291.45,356.78c-7.11-8.29-17.62-13.05-28.84-13.05-9.41,0-17.16,2.24-23.45,5.39-2.51-.78-5.16-1.19-7.87-1.19-4.78,0-9.16,1.26-13.49,3.23h-131.19c-6.07-2.08-12.84-3.23-20.28-3.23-8.92,0-17.62,1.87-25.7,5.23-.15-.07-.29-.16-.44-.22l6.09-38.91h-39.52l-6.44,9.08-2.53,3.59c-5.14,7.32-17.19,24.46-22.69,24.46-4.21,0-8.02,1.08-11.27,3.05-7.72-3.67-17.84-6.28-31.03-6.28-12.35,0-22.4,2.78-30.22,7.08-7.04-7.17-16.77-11.28-27.15-11.28-9.41,0-17.16,2.24-23.45,5.39-2.51-.78-5.16-1.19-7.87-1.19-9.85,0-18.04,5.27-27.53,11.37-2.33,1.5-5.72,3.68-8.87,5.48-10.53-10.89-25.04-16.85-41.26-16.85-7.5,0-14.84,1.32-21.79,3.74l2.13-13.57c.95-5.58,2.92-17.19-5.24-26.86-4.9-5.8-11.99-8.99-19.98-8.99-9.81,0-17.99,5.22-27.47,11.27-4.4,2.81-12.59,8.03-15.79,8.59l-15.22,2.66-2.68,17.37-.98,6.94c-3.52-.74-7.15-1.13-10.85-1.13-5.58,0-11,.83-16.16,2.45-3.46-1.6-7.34-2.45-11.45-2.45-4.78,0-9.17,1.25-13.52,3.23h-115.39c-6.07-2.08-12.84-3.23-20.28-3.23-8.93,0-17.63,1.88-25.71,5.24-.29-7.6-3.23-15.02-8.66-21.37-11.5-13.46-33.66-21.49-59.28-21.49-33.54,0-62.19,21.43-66.63,49.79-2.02,12.68.28,22.79,4.86,30.93-11.3,5.08-20.03,15.67-21.97,28.16-1.77,11.12,1.52,22.24,9.28,31.33,13.65,16,38.71,23.29,56.22,23.29,22.46,0,42.38-6.52,57-17.59,11.02,11.37,26.82,17.59,44.88,17.59,7.3,0,14.2-1.4,20.57-3.71h74.36l-7.84,2.38-7.29,40.08h84.2l6.19-38.77c.48.01.96.02,1.44.02,7.24,0,14.12-1.33,20.57-3.71h.52v6.05l6.3,2v30.18l-3.65,2v33.73h71.99v-6.1c8.31,8.03,19.69,12.93,32.43,12.93,9.52,0,18.37-2.89,25.73-7.83,6.84,5.02,15.25,7.83,24.74,7.83,4.41,0,8.72-.76,12.74-2.23h30.94c4.53,1.44,9.38,2.23,14.45,2.23,8.31,0,15.38-1.86,21.3-4.78,5.67,3.11,12.22,4.88,19.28,4.88,4.32,0,8.6-.82,12.76-2.43,4.09,1.59,8.53,2.43,13.11,2.43s9.33-1.11,13.42-3.14c5.93,1.99,12.34,3.04,18.64,3.04,8.55,0,16.3-1.71,22.89-4.73,5.18,3.07,11.35,4.83,18.19,4.83,11.96,0,22.6-6.89,27.75-17.97l2.01-4.32v-13.12l-3.2-4.11v-7.96c5.82-3.77,10.15-10.52,10.15-19.96,0-4.11-.86-7.68-2.26-10.75,3.9.65,7.94,1,12.12,1,14.04,0,26.64-5.06,36.65-12.22,5.53,5.6,14.75,11.41,29.18,11.41,6.05,0,13.65-1.06,21.7-4.77,6.2,3.71,13.8,5.74,22.38,5.74,5.71,0,11.33-1.37,16.46-3.88h70.29l6.88-37.82-9.98-3.33c.02-1.13.11-2.54.33-4.27,2.04.35,4.14.53,6.29.53,21.24,0,40.38-16.48,43.56-37.47,1.74-11.29-1.39-22.58-8.58-30.97Zm-428.44,67.9c.4.07.8.1,1.2.15-.1,1.54-.11,3.07-.07,4.6l-1.46-.49c.02-1.13.11-2.54.33-4.27Zm4.93,33.58l1.49-8.22c1.49,2.81,3.26,5.48,5.34,7.92.13.15.28.29.42.44-1.65-.15-3.32-.25-5.03-.25-.75,0-1.48.08-2.22.11Z"/>
      <path class="cls-6" d="m1278.75,384.47c-1.61,10.66-11.78,19.21-22.28,19.21-9.69,0-14.53-8.56-13.24-17.11.32-1.94.97-3.71,1.78-5.65,1.29-2.91,1.94-4.2-1.78-1.94-4.68,3.39-9.2,9.53-10.66,18.25l-3.39,22.28c-3.07,18.73,2.74,26.16,6.13,27.29l-.32,1.78h-50.37l.32-1.78c3.71-1.13,11.79-8.56,14.85-27.29l.97-6.78c2.1-13.24-1.13-18.57-9.36-21.47l.32-2.1c13.88-2.42,31.97-19.7,39.56-19.7,5.17,0,4.84,6.3,4.04,10.98,5.65-7.26,13.24-15.18,27.29-15.18,10.49,0,17.76,8.72,16.14,19.21Z"/>
    </g>
    <g>
      <path class="cls-7" d="m743.25,476.87c0,14.53-15.11,18.79-31.97,18.79h-9.98v14.04c0,11.24,4.17,15.69,6.29,16.37v1.06h-31.58v-1.06c2.13-.68,6.3-5.13,6.3-16.37v-32.93c0-11.24-4.17-15.69-6.3-16.37v-1.07h44.36c13.27,0,22.86,8.04,22.86,17.53Zm-32.84,14.53c8.23,0,12.79-6.2,12.79-13.85s-5.81-14.34-12.79-14.34h-4.75c-2.23,0-4.36.87-4.36,7.36v20.83h9.1Z"/>
      <path class="cls-7" d="m736.67,504.57c0-13.75,10.85-24.89,24.89-24.89s24.8,11.14,24.8,24.89-10.85,24.8-24.8,24.8-24.89-11.04-24.89-24.8Zm32.54-1.07c-1.84-13.27-5.81-20.44-10.56-19.76-4.84.68-6.69,8.72-4.94,21.89,1.94,13.27,5.91,20.34,10.75,19.57,4.65-.58,6.59-8.53,4.75-21.7Z"/>
      <path class="cls-7" d="m841.58,509.71c0,11.24,4.17,15.69,6.3,16.37v1.06h-24.02c-.78-1.55-1.26-1.65-3.97.1-2.03,1.26-4.65,2.13-7.85,2.13-14.92,0-21.79-13.08-21.79-27.8s11.33-21.89,20.63-21.89c5.62,0,9.98,2.33,13.08,5.91v-7.46c0-7.94-2.52-11.14-7.65-12.88v-1.26c8.04-1.45,17.24-11.72,21.79-11.72,3.68,0,3.49,3.97,3.49,6.88v50.56Zm-24.89,15.6c4.84,0,6.88-5.81,7.17-17.34l.1-8.33c-.49-12.11-3.88-14.53-7.27-14.53-5.04,0-7.17,5.81-7.17,20.15s2.13,20.05,7.17,20.05Z"/>
      <path class="cls-7" d="m892.05,516.2c-2.33,6.1-9.11,13.17-21.89,13.17-14.05,0-24.89-11.04-24.89-24.8s10.85-24.89,24.89-24.89c10.95,0,20.44,5.42,20.44,13.75,0,3.39-2.81,6.2-6.3,6.2s-6.2-2.81-5.91-6.2c0-9.49-3.1-9.88-6.59-9.88-5.13,0-8.52,7.65-8.52,21.02s5.62,19.95,11.53,19.95c2.71,0,6.97-2.71,7.94-8.33h9.3Z"/>
      <path class="cls-7" d="m944.85,522.98v.97c-1.26,2.71-4.07,5.52-8.23,5.52-5.04,0-8.62-2.33-10.66-4.84-1.16-1.26-2.13-1.36-3.49-.39-3.29,2.91-7.46,5.23-11.72,5.23-10.07,0-17.73-7.75-17.73-17.34,0-10.36,9.3-18.6,20.73-18.6,4.07,0,7.46.78,10.07,2.32-.58-7.65-2.81-12.3-8.72-12.3s-9.3,4.55-9.3,8.62l-2.23.87c-2.23-.87-3.39-2.13-3.39-4.65,0-5.13,7.56-8.72,15.79-8.72,17.43,0,25.67,9.39,25.67,22.57v12.98c0,4.65,1.94,6.1,3.2,7.75Zm-28.96.87c1.06,0,2.52-.78,3.97-2.13,3.78-3.97,4.07-8.33,4.07-15.21v-6c-1.55-1.16-3.58-1.94-5.52-1.94-4.94,0-7.65,3.49-7.65,12.21,0,7.75,2.23,13.08,5.13,13.08Z"/>
      <path class="cls-7" d="m953.67,509.12c3.49,0,7.46,1.84,7.46,5.04,0,3-2.91,4.45-2.91,6.3,0,2.42,3.2,5.04,9.78,5.04,5.42,0,8.43-1.74,8.43-5.33,0-9.3-28.87-10.46-28.87-26.83,0-7.65,11.43-13.56,22.96-13.56,10.85,0,18.5,4.17,18.5,8.33,0,2.13-2.03,4.94-4.55,5.42l-.97-.48c0-4.55-4.26-9.4-10.08-9.4-3.29,0-7.46,1.55-7.46,4.65,0,6.88,26.06,10.66,26.06,25.57,0,10.17-11.43,15.5-23.34,15.5-8.52,0-22.86-3.78-22.86-12.3,0-4.36,3.39-7.94,7.85-7.94Z"/>
      <path class="cls-7" d="m1024.58,481.62c.48,0,.48,3.87,0,3.87h-6.97c-1.94,0-2.61.49-2.81,1.36v28.38c0,4.75,1.84,6.01,3.2,7.75v.97c-1.26,2.71-4.07,5.52-8.23,5.52-8.33,0-12.69-5.04-12.69-12.88v-28.19c0-1.94,0-2.91-2.91-2.91h-3.49c-.48,0-.48-3.87,0-3.87h.1c10.66,0,16.56-12.3,22.09-22.28h1.94v22.28h9.78Z"/>
    </g>
    <g>
      <path class="cls-7" d="m331.48,407.24c7.26,0,12.59,3.71,11.46,10.49-.81,5.81-7.1,7.43-7.75,11.95-.97,5.97,11.14,12.43,27.12,12.43,13.08,0,23.41-8.07,24.86-16.79,4.68-29.23-60.38-24.38-54.09-63.94,2.91-18.57,23.09-31.64,45.37-31.64,28.58,0,48.28,11.95,46.34,24.22-.97,5.65-6.3,10.33-12.11,10.33s-9.69-4.68-8.23-10.33c2.74-11.14-1.94-16.14-16.47-16.14-8.72,0-17.28,5.17-18.57,12.59-3.39,22.28,56.83,24.86,51.18,60.55-3.87,24.7-31.48,39.23-60.38,39.23-18.24,0-47.14-11.46-44.24-29.71,1.13-7.27,8.07-13.24,15.5-13.24Z"/>
      <path class="cls-7" d="m498.91,428.23c-5.49,10.17-20.02,21.96-36.81,21.96-26.64,0-41.65-18.41-38.1-41.33,3.71-22.93,24.7-41.49,48.11-41.49s31.81,13.4,31.81,34.07c0,5.33-2.91,10.01-13.72,10.01-26.64.48-45.21,5.49-34.87,22.6,7.91,12.76,20.83,9.69,28.09-5.81h15.5Zm-44.88-19.38l-.16,1.29c17.76-7.75,22.28-3.07,24.54-17.12,2.1-14.21-1.61-19.21-8.56-19.21-7.75,0-12.27,12.76-15.82,35.04Z"/>
      <path class="cls-7" d="m553.8,400.94l10.01,21.15c7.75,15.66,14.53,21.47,15.5,22.6l-.32,1.78h-50.37l.32-1.78c4.36-1.13,8.07-6.94.32-22.6l-1.78-3.71-3.87,4.36c-13.08,15.34-10.82,20.83-6.3,21.96l-.32,1.78h-27.61l.32-1.78c2.26-1.13,13.24-6.62,26.32-21.96l8.72-10.01-8.4-17.76c-7.75-15.66-16.63-21.47-18.57-22.6l.32-1.78h53.44l-.32,1.78c-4.36,1.13-8.07,6.94-.32,22.6l.16.32.97-1.13c13.4-15.18,11.95-20.67,7.91-21.8l.32-1.78h30.68l-.32,1.78c-3.71,1.13-17.6,6.62-31,21.8l-5.81,6.78Z"/>
      <path class="cls-7" d="m677.48,403.85c-3.87,24.54-18.89,46.34-43.75,46.34-5.33,0-9.36-1.45-12.43-3.55-4.04-2.9-6.13-4.2-6.78-.16l-6.78,42.46h-40.04l.32-1.78c3.71-1.13,11.95-8.56,14.85-27.29l7.91-49.41c2.1-13.24-1.13-18.57-9.2-21.47l.32-2.1c13.72-2.42,31.81-19.54,39.39-19.54,5.49,0,5.01,5.17,4.2,9.85,6.13-5.97,14.05-9.85,23.41-9.85,15.5,0,32.45,11.95,28.58,36.49Zm-33.1,6.13c3.71-23.9,1.78-33.58-6.62-33.58-5.97,0-12.92,4.68-16.63,28.42l-.48,2.91c-3.71,23.73-2.42,35.68,6.46,35.68,8.4,0,13.56-9.69,17.28-33.42Z"/>
      <path class="cls-7" d="m725.76,333.13l-13.24,84.28c-3.07,18.73,2.74,26.16,6.13,27.29l-.32,1.78h-50.54l.32-1.78c3.71-1.13,11.79-8.56,14.85-27.29l8.39-52.63c2.1-13.24-1.29-18.57-9.36-21.48l.32-2.1c13.88-2.42,31.97-19.54,39.56-19.54,6.13,0,4.68,6.62,3.87,11.46Z"/>
      <path class="cls-7" d="m718.65,408.85c3.71-22.93,24.7-41.49,48.11-41.49s38.43,18.57,34.71,41.49c-3.55,22.93-24.7,41.33-47.95,41.33s-38.43-18.41-34.87-41.33Zm54.57-1.78c.32-22.12-4.36-34.07-12.43-32.94-8.23,1.13-13.4,14.53-14.05,36.49-.16,22.12,4.52,33.91,12.75,32.61,7.91-.97,13.24-14.21,13.72-36.17Z"/>
      <path class="cls-7" d="m891.9,382.37c-1.61,10.66-11.79,19.21-22.28,19.21-9.69,0-14.53-8.56-13.24-17.11.32-1.94.97-3.71,1.78-5.65,1.29-2.91,1.94-4.2-1.78-1.94-4.68,3.39-9.2,9.53-10.66,18.25l-3.39,22.28c-3.07,18.73,2.74,26.16,6.13,27.29l-.32,1.78h-50.37l.32-1.78c3.71-1.13,11.79-8.56,14.85-27.29l.97-6.78c2.1-13.24-1.13-18.57-9.36-21.47l.32-2.1c13.88-2.42,31.97-19.7,39.56-19.7,5.17,0,4.84,6.3,4.04,10.98,5.65-7.26,13.24-15.18,27.29-15.18,10.49,0,17.76,8.72,16.15,19.21Z"/>
      <path class="cls-7" d="m966.55,426.61c-1.29,7.75,1.61,10.17,3.23,12.92l-.32,1.62c-2.74,4.52-8.23,9.2-15.18,9.2-8.39,0-13.72-3.88-16.47-8.07-1.61-2.1-3.23-2.26-5.65-.65-6.3,4.84-13.88,8.72-20.99,8.72-16.79,0-27.45-12.92-24.86-28.9,2.74-17.28,20.34-31,39.39-31,6.78,0,12.27,1.29,16.15,3.88,1.13-12.76-1.45-20.51-11.3-20.51s-16.63,7.59-17.76,14.37l-3.87,1.45c-3.55-1.45-5.17-3.55-4.52-7.75,1.45-8.56,15.01-14.53,28.74-14.53,29.06,0,40.2,15.66,36.81,37.62l-3.39,21.63Zm-45.21,14.37c1.78,0,4.36-1.29,7.1-3.55,7.26-6.62,9.04-13.88,10.82-25.35l1.61-10.01c-2.26-1.94-5.49-3.23-8.72-3.23-8.23,0-13.72,5.81-15.98,20.34-2.1,12.92.32,21.8,5.17,21.8Z"/>
      <path class="cls-7" d="m1015.63,370.58h16.31c.81,0-.32,6.46-1.13,6.46h-11.62c-3.23,0-4.52.81-5,2.26l-7.43,47.31c-1.29,7.91,1.45,10.01,3.23,12.92l-.32,1.62c-2.74,4.52-8.23,9.2-15.18,9.2-13.88,0-19.7-8.4-17.76-21.48l7.43-46.98c.65-3.23.81-4.84-4.04-4.84h-5.81c-.81,0,.32-6.46,1.13-6.46h.16c17.76,0,30.84-20.5,42.62-37.13h3.23l-5.81,37.13Z"/>
      <path class="cls-7" d="m1093.45,428.23c-5.49,10.17-20.02,21.96-36.81,21.96-26.64,0-41.65-18.41-38.1-41.33,3.71-22.93,24.7-41.49,48.11-41.49s31.81,13.4,31.81,34.07c0,5.33-2.91,10.01-13.72,10.01-26.64.48-45.21,5.49-34.87,22.6,7.91,12.76,20.83,9.69,28.09-5.81h15.5Zm-44.88-19.38l-.16,1.29c17.76-7.75,22.28-3.07,24.54-17.12,2.1-14.21-1.61-19.21-8.56-19.21-7.75,0-12.27,12.76-15.82,35.04Z"/>
      <path class="cls-7" d="m1193.99,370.58l-.32,1.78c-2.26,1.13-7.75,8.56-10.65,27.29l-4.2,26.96c-1.29,7.91,1.45,10.01,3.23,12.92l-.32,1.62c-2.74,4.52-8.23,9.2-15.18,9.2-11.14,0-17.11-5.33-18.08-14.21-6.13,7.1-14.53,13.24-25.99,13.24-17.44,0-20.99-14.69-18.89-27.93l3.39-21.8c2.91-18.73-.65-26.16-3.07-27.29l.32-1.78h36.81l-8.23,51.34c-1.45,9.37.65,14.53,6.62,14.53,6.46,0,9.36-7.59,11.46-20.02l2.58-16.79c2.91-18.73-.65-26.16-2.91-27.29l.32-1.78h43.11Z"/>
      <path class="cls-7" d="m1279.08,382.37c-1.61,10.66-11.78,19.21-22.28,19.21-9.69,0-14.53-8.56-13.24-17.11.32-1.94.97-3.71,1.78-5.65,1.29-2.91,1.94-4.2-1.78-1.94-4.68,3.39-9.2,9.53-10.66,18.25l-3.39,22.28c-3.07,18.73,2.74,26.16,6.13,27.29l-.32,1.78h-50.37l.32-1.78c3.71-1.13,11.79-8.56,14.85-27.29l.97-6.78c2.1-13.24-1.13-18.57-9.36-21.47l.32-2.1c13.88-2.42,31.97-19.7,39.56-19.7,5.17,0,4.84,6.3,4.04,10.98,5.65-7.26,13.24-15.18,27.29-15.18,10.49,0,17.76,8.72,16.14,19.21Z"/>
    </g>
  </g>
</svg>