<?xml version="1.0" encoding="UTF-8"?>
<svg id="Calque_1" data-name="Calque 1" xmlns="http://www.w3.org/2000/svg" viewBox="0 0 472.59 466.79">
  <defs>
    <style>
      .cls-1 {
        fill: #52539b;
      }

      .cls-1, .cls-2, .cls-3 {
        stroke-width: 0px;
      }

      .cls-2 {
        fill: #cd5c66;
      }

      .cls-3 {
        fill: #fff;
      }
    </style>
  </defs>
  <g>
    <path class="cls-2" d="m231.98,369.25c-42.11,0-124.65-26.76-124.65-88.61,0-23.61,14.25-43.96,34.64-53-12.03-14.27-20.23-32.62-20.23-56.9,0-52.57,46.62-92.22,108.43-92.22,72.26,0,126.75,33.71,126.75,78.4,0,16.66-7.84,31.54-20.04,41.18,16.63,15.71,29.05,36.39,29.05,64.82,0,61.61-56.34,106.33-133.96,106.33Zm-9.68-82.56c3.34.5,7.1.82,11.19.82,2.01,0,3.68-.23,5.02-.56-3.4-2.68-9.02-5.77-14.97-8.73-.16,3.03-.6,5.85-1.23,8.47Z"/>
    <path class="cls-2" d="m165.62,256.01c13.51,0,24.62,6.91,24.62,19.52,0,10.81-11.11,13.81-11.11,22.22,0,11.11,24.62,23.12,54.35,23.12,24.32,0,41.14-15.01,41.14-31.23,0-54.35-119.51-45.34-119.51-118.91,0-34.53,33.63-58.86,75.07-58.86,53.15,0,93.39,22.22,93.39,45.04,0,10.51-8.71,19.22-19.52,19.22s-19.22-8.71-18.32-19.22c1.8-20.72-8.41-30.03-35.43-30.03-16.21,0-30.63,9.61-30.63,23.42,0,41.44,112.91,46.24,112.91,112.61,0,45.94-46.85,72.97-100.6,72.97-33.93,0-91.28-21.32-91.28-55.25,0-13.51,11.11-24.62,24.92-24.62Z"/>
  </g>
  <path class="cls-3" d="m165.62,256.01c13.51,0,24.62,6.91,24.62,19.52,0,10.81-11.11,13.81-11.11,22.22,0,11.11,24.62,23.12,54.35,23.12,24.32,0,41.14-15.01,41.14-31.23,0-54.35-119.51-45.34-119.51-118.91,0-34.53,33.63-58.86,75.07-58.86,53.15,0,93.39,22.22,93.39,45.04,0,10.51-8.71,19.22-19.52,19.22s-19.22-8.71-18.32-19.22c1.8-20.72-8.41-30.03-35.43-30.03-16.21,0-30.63,9.61-30.63,23.42,0,41.44,112.91,46.24,112.91,112.61,0,45.94-46.85,72.97-100.6,72.97-33.93,0-91.28-21.32-91.28-55.25,0-13.51,11.11-24.62,24.92-24.62Z"/>
  <polygon class="cls-2" points="117.05 143.91 97.07 125.73 70.77 131.88 81.89 107.27 67.91 84.15 94.75 87.12 112.42 66.68 117.89 93.13 142.78 103.61 119.32 117 117.05 143.91"/>
  <polygon class="cls-1" points="384.53 393.25 360.31 381.29 336.74 394.47 340.62 367.74 320.81 349.39 347.43 344.82 358.76 320.31 371.33 344.21 398.14 347.42 379.29 366.75 384.53 393.25"/>
</svg>